<?xml version="1.0" encoding="utf-8"?>
<!-- Svg Vector Icons : http://www.onlinewebfonts.com/icon -->
<!DOCTYPE svg PUBLIC "-//W3C//DTD SVG 1.1//EN" "http://www.w3.org/Graphics/SVG/1.1/DTD/svg11.dtd">
<svg version="1.1" xmlns="http://www.w3.org/2000/svg" xmlns:xlink="http://www.w3.org/1999/xlink" x="0px" y="0px" viewBox="0 0 1000 1000" enable-background="new 0 0 1000 1000" xml:space="preserve">
<metadata> Svg Vector Icons : http://www.onlinewebfonts.com/icon </metadata>
<g><g transform="translate(0.000000,512.000000) scale(0.100000,-0.100000)"><path d="M4689.7,5016.6c-759.2-65.2-1353.5-232-1968.9-554.1c-893.4-465.9-1652.6-1236.6-2105-2137.6C264.9,1625.1,100,923.4,100,120.1c0-801.4,164.9-1506.9,513.8-2202.8c400.7-795.6,1071.7-1522.2,1842.4-1991.9c1608.5-981.6,3671.4-937.5,5249.1,111.2C9743.3-2608,10471.8,18.5,9423.1,2229c-245.4,511.9-540.6,927.9-964.3,1353.5c-784.1,784.1-1704.4,1240.4-2810.5,1397.6C5448.9,5008.9,4854.5,5031.9,4689.7,5016.6z M6877.1,3348.6c61.3-24.9,163-126.5,485-488.9c226.2-251.1,423.7-487,441-523.4c26.8-59.4,30.7-258.8,30.7-2118.5c0-1980.4-1.9-2057.1-36.4-2126.1c-44.1-84.4-122.7-168.7-203.2-210.9c-51.8-30.7-272.3-32.6-2555.6-38.3c-1729.3-1.9-2523,1.9-2574.7,15.3c-92,24.9-216.6,134.2-268.4,232c-34.5,70.9-36.4,136.1-36.4,2130v2057.1l46,78.6c24.9,44.1,214.7,274.2,423.7,511.9c272.2,310.6,402.6,444.8,458.2,473.5c76.7,38.3,111.2,38.3,1894.2,38.3C6620.2,3379.3,6806.2,3375.5,6877.1,3348.6z M2964.2-2247.5c65.2-34.5,72.8-57.5,82.4-268.4c7.7-178.3,38.3-239.6,141.9-287.6c103.5-49.8,210.9-28.8,287.6,55.6c59.4,65.2,63.3,76.7,63.3,212.8c0,172.5,34.5,270.3,105.4,297.2c78.6,28.8,103.5,23,164.9-36.4c51.8-53.7,55.6-65.2,55.6-218.6c0-212.8-40.3-335.5-151.5-458.2C3595-3083.4,3474.2-3139,3299.7-3139c-220.5,0-408.3,115-511.9,312.5c-34.5,65.2-44.1,120.8-49.8,293.3l-7.7,210.9l61.4,51.8C2860.7-2211.1,2887.5-2207.3,2964.2-2247.5z M6346.1-2238c76.7-28.8,107.4-111.2,107.4-287.6c0-147.6,1.9-157.2,63.2-222.4c76.7-84.4,184.1-105.4,287.6-55.6c103.5,47.9,134.2,109.3,141.9,287.6c9.6,210.9,17.3,233.9,82.4,268.4c76.7,40.3,103.5,36.4,170.6-21.1c59.4-47.9,59.4-51.8,59.4-230.1c0-297.2-93.9-473.5-310.6-580.9c-216.6-109.3-465.8-72.9-634.6,90.1c-124.6,120.8-170.6,233.9-182.1,448.6c-9.6,203.2,11.5,268.4,97.8,302.9C6284.7-2215,6290.5-2215,6346.1-2238z"/><path d="M3209.6,3049.6c-17.3-13.4-191.7-209-387.3-435.2l-356.6-410.3v-1990c0-1783,3.8-1991.9,30.7-2018.8c19.2-21.1,67.1-30.7,147.6-32.6c141.9-1.9,4744.9-1.9,4791,0c17.3,1.9,46,15.3,61.4,32.6c26.8,26.8,30.7,235.8,30.7,2020.7v1991.9l-337.4,379.6c-186,209-362.3,402.6-393,433.3l-55.6,51.8H4990.7C3619.9,3072.6,3232.6,3066.8,3209.6,3049.6z M6516.7,2554.9c97.8-78.6,72.9-224.3-46-266.5c-86.3-28.8-2862.3-28.8-2948.6,0c-118.9,42.2-143.8,187.9-46,266.5c47.9,38.3,82.4,38.3,1520.3,38.3S6468.8,2593.3,6516.7,2554.9z M6881,1952.9c86.3-42.2,174.5-126.5,220.5-210.9c28.8-53.7,32.6-145.7,38.3-855.1c5.8-880,3.9-906.8-107.3-1037.2c-138-161,7.7-151.5-2036-151.5c-1719.7,0-1815.5,1.9-1890.3,36.4C3012.2-221.1,2901-96.5,2872.2,3.2c-28.8,92-32.6,1572.1-3.8,1667.9c42.2,151.5,186,279.9,345.1,308.7c36.4,7.7,860.8,11.5,1830.9,11.5C6733.3,1989.4,6812,1987.5,6881,1952.9z M3830.8-443.5c197.5-59.4,348.9-214.7,408.3-421.8c76.7-266.5-51.8-544.5-320.2-686.4c-69-36.4-111.2-44.1-264.6-44.1s-195.6,7.7-268.4,44.1c-116.9,61.4-222.4,166.8-283.7,281.8c-42.2,80.5-51.8,120.8-51.8,249.2c0,130.4,7.7,170.6,53.7,262.7C3234.6-491.4,3545.1-357.2,3830.8-443.5z M6562.7-458.8c149.6-55.6,291.4-197.5,348.9-350.8c111.2-293.3-28.8-611.6-331.7-749.6c-99.7-44.1-128.4-49.9-268.4-42.2c-109.3,5.8-178.3,21.1-237.7,51.8c-266.5,136.1-398.8,417.9-320.2,684.4C5855.3-512.5,6217.6-328.5,6562.7-458.8z"/><path d="M3205.8,1642.4c-34.5-34.5-36.4-61.3-34.5-985.4c1.9-575.2,3.8-584.7,44.1-617.3c38.3-32.6,151.5-34.5,1781-34.5c1646.9,0,1742.7,1.9,1783,34.5c42.2,34.5,42.2,34.5,42.2,722.8c0,379.6-1.9,726.6-1.9,770.7c-3.8,151.5,147.6,139.9-1823.2,139.9C3420.5,1673,3232.6,1669.2,3205.8,1642.4z"/><path d="M3520.2-757.9c-36.4-17.3-86.3-63.3-111.2-99.7c-61.4-92-53.7-262.7,17.3-337.4c138-147.6,362.3-134.2,471.6,28.8C4057-928.5,3779-627.5,3520.2-757.9z"/><path d="M6204.2-759.8c-95.9-51.8-140-118.9-149.6-235.8c-5.7-84.3,0-113.1,38.3-168.7c115-170.6,347-180.2,483.1-19.2c40.3,47.9,49.8,80.5,49.8,161C6626-794.3,6401.7-654.4,6204.2-759.8z"/></g></g>
</svg>